<svg xmlns="http://www.w3.org/2000/svg" viewBox="0 0 162.14 142.45"><title>page-generator</title><g id="Layer_2" data-name="Layer 2"><g id="Layer_1-2" data-name="Layer 1"><path d="M85.3.14c47.58,1,103.84,92.26,16.65,92-7.65.76-15.64,1.35-24.56,7.14C61.43,105.76,50,140,28.14,132.68,8.29,125-2.57,89.35.52,63.45,9,27,27.43-2.32,85.3.14ZM69.45,92.42c14.32-13.4,35-8.51,54.69-14.39,47.14-13-16.88-103.8-96.36-48.4-21.92,16-34,92,8,93.44C45.9,119.64,53.92,103.67,69.45,92.42Z"/><path d="M128.23,107.8c-8.8,20.18-35.14,22.42-66.1,34.65C52.23,134.79,122.84,95.4,128.23,107.8Z"/><path d="M155.55,94.92c-11.24,20.9-32.77,1.06-3.8-6.48C151.28,89.89,151.06,94,155.55,94.92Z"/><path fill="#cf536d" d="M155.55,94.92c-13.45-2.63,12.55-24.77,5.28-4.51A7.43,7.43,0,0,1,155.55,94.92Z"/><path d="M134.28,104.18c-.66,9.44-8.84,4-4.13-3.63C131.35,99,133.68,99.78,134.28,104.18Z"/><path fill="#cf536d" d="M97.67,28.89c3.92,18.5-20.8,35.51-19.93,2.76C77.9,23.3,98.25,9.45,97.67,28.89Z"/><path d="M44.4,35.85c-2.69-24.32,21.39-21.91,20.45,3.82-1.67,12.59-18.69,14.27-20.57-3.82Z"/><path d="M113.18,69.75C98.91,67.12,102.5,35.46,120.78,42,128.62,50.16,128.56,69,113.18,69.75Z"/><path d="M20.52,91.9C16.54,74.08,51.4,64.6,47.6,95,43.6,106.35,23.2,109.37,20.52,91.9Zm6.06.83c6,14.78,32-15.86,2.86-8.48C28,86.93,27,87.79,26.58,92.73Z"/><path fill="#cf536d" d="M26.74,38.26c14.76,2.66,10,39.94-4.27,14.82C21.49,49,19.76,40.42,26.74,38.26Z"/></g></g></svg>